<svg width="24" height="25" viewBox="0 0 24 25" fill="none" xmlns="http://www.w3.org/2000/svg">
<g id="Frame">
<path id="Vector" d="M17.0307 13.0307L9.53068 20.5307C9.46099 20.6004 9.37827 20.6556 9.28722 20.6933C9.19618 20.7311 9.0986 20.7505 9.00005 20.7505C8.9015 20.7505 8.80392 20.7311 8.71288 20.6933C8.62183 20.6556 8.53911 20.6004 8.46943 20.5307C8.39974 20.461 8.34447 20.3783 8.30676 20.2872C8.26904 20.1962 8.24963 20.0986 8.24963 20.0001C8.24963 19.9015 8.26904 19.8039 8.30676 19.7129C8.34447 19.6218 8.39974 19.5391 8.46943 19.4694L15.4397 12.5001L8.46943 5.53068C8.32869 5.38995 8.24963 5.19907 8.24963 5.00005C8.24963 4.80103 8.32869 4.61016 8.46943 4.46943C8.61016 4.3287 8.80103 4.24963 9.00005 4.24963C9.19907 4.24963 9.38995 4.3287 9.53068 4.46943L17.0307 11.9694C17.1004 12.0391 17.1557 12.1218 17.1935 12.2128C17.2312 12.3039 17.2506 12.4015 17.2506 12.5001C17.2506 12.5986 17.2312 12.6962 17.1935 12.7873C17.1557 12.8783 17.1004 12.961 17.0307 13.0307Z" fill="url(#paint0_linear_2_1173)"/>
</g>
<defs>
<linearGradient id="paint0_linear_2_1173" x1="12.7501" y1="4.24963" x2="12.0001" y2="29.5001" gradientUnits="userSpaceOnUse">
<stop stop-color="white"/>
<stop offset="1" stop-color="white" stop-opacity="0.1"/>
</linearGradient>
</defs>
</svg>
