<svg width="24" height="25" viewBox="0 0 24 25" fill="none" xmlns="http://www.w3.org/2000/svg">
<g id="Frame">
<path id="Vector" d="M20.0306 8.21938L14.7806 2.96938C14.7109 2.89975 14.6282 2.84454 14.5371 2.8069C14.4461 2.76926 14.3485 2.74992 14.25 2.75H5.25C4.85218 2.75 4.47064 2.90804 4.18934 3.18934C3.90804 3.47064 3.75 3.85218 3.75 4.25V20.75C3.75 21.1478 3.90804 21.5294 4.18934 21.8107C4.47064 22.092 4.85218 22.25 5.25 22.25H18.75C19.1478 22.25 19.5294 22.092 19.8107 21.8107C20.092 21.5294 20.25 21.1478 20.25 20.75V8.75C20.2501 8.65148 20.2307 8.55391 20.1931 8.46286C20.1555 8.37182 20.1003 8.28908 20.0306 8.21938ZM15 5.31031L17.6897 8H15V5.31031ZM18.75 20.75H5.25V4.25H13.5V8.75C13.5 8.94891 13.579 9.13968 13.7197 9.28033C13.8603 9.42098 14.0511 9.5 14.25 9.5H18.75V20.75ZM14.7806 13.4694C14.8503 13.5391 14.9056 13.6218 14.9433 13.7128C14.981 13.8039 15.0004 13.9015 15.0004 14C15.0004 14.0985 14.981 14.1961 14.9433 14.2872C14.9056 14.3782 14.8503 14.4609 14.7806 14.5306C14.7109 14.6003 14.6282 14.6556 14.5372 14.6933C14.4461 14.731 14.3485 14.7504 14.25 14.7504C14.1515 14.7504 14.0539 14.731 13.9628 14.6933C13.8718 14.6556 13.7891 14.6003 13.7194 14.5306L12.75 13.5603V17.75C12.75 17.9489 12.671 18.1397 12.5303 18.2803C12.3897 18.421 12.1989 18.5 12 18.5C11.8011 18.5 11.6103 18.421 11.4697 18.2803C11.329 18.1397 11.25 17.9489 11.25 17.75V13.5603L10.2806 14.5306C10.2109 14.6003 10.1282 14.6556 10.0372 14.6933C9.94613 14.731 9.84855 14.7504 9.75 14.7504C9.65145 14.7504 9.55387 14.731 9.46283 14.6933C9.37178 14.6556 9.28906 14.6003 9.21937 14.5306C9.14969 14.4609 9.09442 14.3782 9.0567 14.2872C9.01899 14.1961 8.99958 14.0985 8.99958 14C8.99958 13.9015 9.01899 13.8039 9.0567 13.7128C9.09442 13.6218 9.14969 13.5391 9.21937 13.4694L11.4694 11.2194C11.539 11.1496 11.6217 11.0943 11.7128 11.0566C11.8038 11.0188 11.9014 10.9994 12 10.9994C12.0986 10.9994 12.1962 11.0188 12.2872 11.0566C12.3783 11.0943 12.461 11.1496 12.5306 11.2194L14.7806 13.4694Z" fill="url(#paint0_linear_2_833)"/>
</g>
<defs>
<linearGradient id="paint0_linear_2_833" x1="12" y1="2.75" x2="12" y2="30" gradientUnits="userSpaceOnUse">
<stop stop-color="white"/>
<stop offset="1" stop-color="white" stop-opacity="0.1"/>
</linearGradient>
</defs>
</svg>
